<?xml version="1.0" encoding="utf-8"?>
<!-- Generator: Adobe Illustrator 16.0.3, SVG Export Plug-In . SVG Version: 6.00 Build 0)  -->
<!DOCTYPE svg PUBLIC "-//W3C//DTD SVG 1.1//EN" "http://www.w3.org/Graphics/SVG/1.1/DTD/svg11.dtd">
<svg version="1.1" id="Layer_1" xmlns="http://www.w3.org/2000/svg" xmlns:xlink="http://www.w3.org/1999/xlink" x="0px" y="0px"
	 width="26px" height="45px" viewBox="0 0 26 45" enable-background="new 0 0 26 45" xml:space="preserve">
<path fill="#F9B617" d="M10,20c0,1.094-0.906,2-2,2s-2-0.906-2-2s0.906-2,2-2S10,18.906,10,20z M24,20c0,1.094-0.906,2-2,2
	s-2-0.906-2-2s0.906-2,2-2S24,18.906,24,20z M26,3v8c0,0.5-0.391,0.938-0.891,1L8.797,13.906C8.875,14.266,9,14.625,9,15
	c0,0.359-0.219,0.688-0.375,1H23c0.547,0,1,0.453,1,1s-0.453,1-1,1H7c-0.547,0-1-0.453-1-1c0-0.484,0.703-1.656,0.953-2.141L4.187,2
	H1C0.453,2,0,1.547,0,1s0.453-1,1-1h4c1.047,0,1.078,1.25,1.234,2H25C25.547,2,26,2.453,26,3z"/>
<path fill="#F16022" d="M10,43c0,1.094-0.906,2-2,2s-2-0.906-2-2s0.906-2,2-2S10,41.906,10,43z M24,43c0,1.094-0.906,2-2,2
	s-2-0.906-2-2s0.906-2,2-2S24,41.906,24,43z M26,26v8c0,0.5-0.391,0.938-0.891,1L8.797,36.906C8.875,37.266,9,37.625,9,38
	c0,0.359-0.219,0.688-0.375,1H23c0.547,0,1,0.453,1,1s-0.453,1-1,1H7c-0.547,0-1-0.453-1-1c0-0.484,0.703-1.656,0.953-2.141
	L4.187,25H1c-0.547,0-1-0.453-1-1s0.453-1,1-1h4c1.047,0,1.078,1.25,1.234,2H25C25.547,25,26,25.453,26,26z"/>
</svg>
