<?xml version="1.0" encoding="utf-8"?>
<!-- Generator: Adobe Illustrator 16.0.3, SVG Export Plug-In . SVG Version: 6.00 Build 0)  -->
<!DOCTYPE svg PUBLIC "-//W3C//DTD SVG 1.1//EN" "http://www.w3.org/Graphics/SVG/1.1/DTD/svg11.dtd">
<svg version="1.1" id="Layer_1" xmlns="http://www.w3.org/2000/svg" xmlns:xlink="http://www.w3.org/1999/xlink" x="0px" y="0px"
	 width="15px" height="15px" viewBox="0 0 15 15" enable-background="new 0 0 15 15" xml:space="preserve">
<title>cross</title>
<path fill="#A5A4A4" d="M14.063,0c0.268,0,0.491,0.089,0.671,0.267C14.91,0.445,15,0.669,15,0.938c0,0.264-0.09,0.486-0.271,0.666
	L8.826,7.5l5.903,5.896C14.91,13.578,15,13.799,15,14.063c0,0.268-0.09,0.491-0.267,0.671C14.554,14.91,14.33,15,14.063,15
	c-0.264,0-0.484-0.09-0.666-0.271L7.5,8.826l-5.896,5.903C1.423,14.91,1.201,15,0.938,15c-0.268,0-0.492-0.09-0.67-0.267
	C0.089,14.554,0,14.33,0,14.063c0-0.264,0.091-0.484,0.271-0.666L6.174,7.5L0.271,1.604C0.091,1.423,0,1.201,0,0.938
	c0-0.268,0.089-0.492,0.267-0.67C0.445,0.089,0.669,0,0.938,0c0.264,0,0.486,0.091,0.666,0.271L7.5,6.174l5.896-5.903
	C13.578,0.091,13.799,0,14.063,0z"/>
</svg>
