<?xml version="1.0" encoding="utf-8"?>
<!-- Generator: Adobe Illustrator 16.0.3, SVG Export Plug-In . SVG Version: 6.00 Build 0)  -->
<!DOCTYPE svg PUBLIC "-//W3C//DTD SVG 1.1//EN" "http://www.w3.org/Graphics/SVG/1.1/DTD/svg11.dtd">
<svg version="1.1" id="Layer_1" xmlns="http://www.w3.org/2000/svg" xmlns:xlink="http://www.w3.org/1999/xlink" x="0px" y="0px"
	 width="340px" height="385px" viewBox="0 0 340 385" enable-background="new 0 0 340 385" xml:space="preserve">
<path fill-rule="evenodd" clip-rule="evenodd" fill="#ED1F24" d="M331.428,146.752c-0.092-2.188-0.546-4.254-2.004-5.984
	c-0.052-0.658,0.053-1.377-0.179-1.964c-3.547-9.003-5.227-18.556-8.188-27.731c-2.317-7.181-4.3-14.477-7.604-21.304
	c-0.122-4.165-1.967-7.752-3.719-11.371c-0.068-0.197-0.162-0.405-0.306-0.632c-1.579-4.875-3.28-9.701-5.626-14.268
	c-0.072-0.243-0.199-0.492-0.374-0.733c-2.368-7.928-4.453-16.017-11.998-20.984c-0.22,0.036-0.438,0.068-0.657,0.099
	c0.192-0.058,0.402-0.099,0.657-0.099c-3.527-4.039-8.154-6.654-12.889-8.722c-7.2-3.145-14.725-5.549-22.111-8.267
	c-6.464-1.729-12.789-3.78-18.379-7.63c-1.363-0.939-2.893-1.546-4.618-1.376c-2.227-2.369-4.718-4.317-7.996-5.005v0
	c-0.329-0.334-0.658-0.669-0.987-1.004v0c-0.729-1.163-1.912-0.953-3.011-0.998c-0.034-1.289-0.69-1.961-1.984-2
	c-1.08-1.996-2.953-2.659-5.025-2.985c0.001-0.334,0.003-0.668,0.005-1.002c-0.667,0-1.333,0-2,0
	c-1.044,1.397-2.626,0.857-3.99,1.104c-2.391-0.576-4.506,0.951-6.831,0.891C181.761,4.269,161.88,5.919,142.043,3.9
	c-2.179-0.221-4.638-0.932-6.679,0.8c-1.19,0.753-3.484-2.618-3.896,1.042c-3.999,0.856-6.905,3.688-10.276,5.681
	C108.644,18.839,94.8,22.836,80.948,26.899c-10.068,2.954-20.015,6.34-28.494,12.884c-1.981,1.143-3.854,2.318-5.669,3.837
	c-6.737,5.637-9.713,13.247-12.324,21.166c0.151,1.453-0.321,2.749-0.999,3.994c-0.003,1-0.006,1.999-0.009,2.999
	c-5.338,12.238-8.012,25.319-11.999,37.984c-1.44,1.747-1.27,4.028-1.997,6.01c0,0,0,0,0,0.001c0,0,0,0,0,0
	c-0.813,0.427-0.981,1.173-0.992,1.999c0,0,0,0,0.001,0c-0.542,1.732-0.993,3.499-1.642,5.19c-2.827,7.38-5.714,14.737-8.574,22.104
	c-0.605,1.559-1.589,3.251,1.204,3.713c6.573,3.302,13.471,5.879,20.505,7.848c4.543,1.271,8.549,4.266,13.487,4.162c0,0,0,0,0,0
	c3.595,1.512,6.822,4.033,10.98,3.995c0.586,1.316,1.59,1.987,3.038,1.972c2.346,0.99,4.689,1.98,7.035,2.97
	c-0.001,0-0.001,0-0.001,0c1.651,0.636,3.257,1.483,4.965,1.86c3.008,0.665,5.218-0.056,4.932-3.817
	c0.36-0.663,0.721-1.327,1.08-1.99c0.295-0.352,0.589-0.703,0.884-1.054c0.818-1.185,1.187-2.507,1.192-3.938
	c0.001,0,0.001-0.001,0.001-0.001c0.604-1.024,1.208-2.049,1.812-3.075c0.38-1.309,0.761-2.617,1.14-3.926c0,0,0,0,0.001-0.001
	c1.494-2.941,3.215-5.787,3.862-9.089c0.306-0.672,0.612-1.346,0.92-2.018c0,0,0,0-0.001,0c0.719,0.037,1.438,0.073,2.157,0.11
	c-0.001,0-0.001,0-0.001,0c0.69,8.662-0.838,17.235-1.032,25.866c-0.203,8.958-0.561,17.954-0.658,26.872
	c-0.257,23.437-1.632,46.817-2.292,70.229c0.692,11.366-1.169,22.656-1,34.007c0,0.666,0.001,1.331,0.001,1.997
	c-0.002,8.663-0.003,17.328-0.004,25.992c0,0.667,0,1.335,0,2.002h0.001c-0.696,1.244-1.171,2.543-0.996,4.003
	c-0.333,14.331-0.667,28.662-1,42.993c2.184,3.938,5.568,3.478,8.916,3.149c0.392,0.287,1.03,0.297,2.079-0.147
	c30.308,1.461,60.605,3.341,90.975,2.006c13.339-0.018,26.678-0.034,40.016-0.052c0,0,0,0,0.001-0.001
	c-0.001,0.001-0.001,0.001-0.001,0.002c4.137,0.013,8.284,0.234,12.403-0.018c4.544-0.277,9.211,1.16,13.632-0.897
	c1.646-0.041,3.292-0.083,4.938-0.123v-0.001c5.384,0.39,5.251-3.201,4.975-6.896c0.1-6.779-0.792-13.558-0.775-20.279
	c0.054-21.949-1.004-43.87-1.139-65.808c-0.193-31.627-0.041-63.256-0.037-94.884c1.584-1.493,0.933-3.437,0.941-5.187
	c0.063-11.624,0.057-23.249,0.037-34.873c-0.005-2.841,0.102-5.622,2.005-7.968c0.279,0.03,0.56,0.056,0.84,0.079
	c0,0,0.001,0,0.001-0.001c0,0,0,0,0,0.001c0.099,0.297,0.188,0.597,0.269,0.9h0.001c1.177,5.67,3.546,10.92,5.709,16.243
	c0,0,0.001,0,0.002,0c0.435,1.234,0.87,2.468,1.305,3.703c-0.107,0.857,0.081,1.6,0.831,2.122c0.875,1.799,0.106,5.279,4.041,3.949
	c2.245,0.073,4.431-0.039,6.001-1.997c0.654-0.015,1.309-0.031,1.963-0.045c0,0-0.001,0-0.001-0.001l0.001,0
	c3.264-0.21,5.604-3.207,9.01-2.99c6.333-2.332,12.665-4.663,18.997-6.994c6.948-2.682,13.896-5.37,20.849-8.042
	C331.648,150.773,333.726,149.737,331.428,146.752z M50.455,152.909c0-0.046,0-0.092,0-0.138c0.064,0.039,0.118,0.063,0.179,0.095
	C50.575,152.883,50.519,152.9,50.455,152.909z M64.454,102.775c0-0.009,0-0.019,0-0.028c0.016,0.005,0.031,0.011,0.048,0.017
	C64.485,102.768,64.47,102.771,64.454,102.775z M80.439,132.778c-0.065-0.031-0.12-0.066-0.182-0.099
	c0.113-0.099,0.221-0.198,0.31-0.299C80.536,132.513,80.496,132.646,80.439,132.778z M85.292,320.435
	c0.29-0.252,0.66-0.484,1.157-0.685c0.06,0.175,0.128,0.349,0.192,0.522C86.131,320.291,85.673,320.339,85.292,320.435z
	 M90.449,334.748c-0.092,0.011-0.187-0.01-0.282-0.043c0.111-0.074,0.219-0.148,0.346-0.222
	C90.489,334.572,90.476,334.658,90.449,334.748z M93.595,359.645c-0.005-0.013-0.008-0.026-0.013-0.038
	c0.009,0.001,0.018,0.002,0.026,0.004c0.002,0.002,0.004,0.005,0.006,0.008C93.608,359.627,93.601,359.635,93.595,359.645z
	 M104.333,372.03c-0.034-0.09-0.068-0.179-0.089-0.286c0.067,0,0.136,0,0.204,0C104.432,371.838,104.39,371.934,104.333,372.03z
	 M119.136,139.319c0.104-0.284,0.214-0.565,0.34-0.842C119.41,138.815,119.296,139.094,119.136,139.319z M130.456,247.152
	c0.427,0.087,0.854,0.14,1.276,0.157C131.146,247.521,130.749,247.422,130.456,247.152z M135.851,10.901
	c-0.061-0.079-0.12-0.157-0.182-0.237c0.09,0.021,0.171,0.04,0.258,0.06C135.9,10.779,135.874,10.837,135.851,10.901z
	 M137.417,287.706c0.046-0.056,0.083-0.132,0.126-0.196c0.047,0.095,0.087,0.19,0.137,0.285
	C137.591,287.769,137.505,287.734,137.417,287.706z M144.447,53.842c0.005-0.045,0.013-0.09,0.017-0.135
	c0.025,0.068,0.047,0.138,0.073,0.206C144.507,53.887,144.478,53.867,144.447,53.842z M155.882,42.489
	c0.004-0.005,0.007-0.009,0.012-0.014c0,0.007,0.001,0.012,0.002,0.019C155.891,42.492,155.887,42.49,155.882,42.489z
	 M173.797,279.846c-0.177,0.251-0.31,0.526-0.415,0.814c-0.19-0.262-0.415-0.536-0.684-0.838c0.191-0.027,0.397-0.068,0.621-0.124
	C173.818,279.574,173.994,279.565,173.797,279.846z M172.959,66.01c0.099,0.046,0.196,0.073,0.294,0.103
	c-0.061,0.143-0.112,0.279-0.178,0.425C173.032,66.359,172.999,66.187,172.959,66.01z M179.003,249.657
	c-0.042,0.027-0.081,0.059-0.123,0.085c0.066-0.059,0.127-0.115,0.186-0.172C179.046,249.6,179.025,249.629,179.003,249.657z
	 M179.531,29.769c-4.36,0.006-8.72,0.012-13.079,0.018c-0.847-0.956-1.277-2.078-1.35-3.346c-0.244-2.321-0.255-4.656-0.009-6.966
	c0.164-1.542-0.019-3.483,2.337-3.729c4,0.014,8.001,0.029,12.002,0.043C180.252,20.443,181.391,25.095,179.531,29.769z
	 M195.386,8.729c0.106,0.646-0.551-0.161,0.065-0.242c0.043-0.024,0.086-0.044,0.129-0.068
	C195.452,8.494,195.363,8.595,195.386,8.729z M198.436,34.786c-0.099,0.083-0.202,0.153-0.304,0.23
	c-0.031-0.092-0.063-0.184-0.108-0.283C198.161,34.75,198.297,34.761,198.436,34.786C198.435,34.786,198.435,34.786,198.436,34.786
	C198.435,34.787,198.436,34.787,198.436,34.786z M200.565,66.342c0.058-0.09,0.083-0.183,0.123-0.274
	c0.061,0.066,0.118,0.123,0.179,0.189C200.765,66.285,200.666,66.313,200.565,66.342z M221.433,173.827c0-0.019,0-0.039,0-0.058
	c0.022,0.001,0.04,0.005,0.062,0.007C221.474,173.794,221.454,173.808,221.433,173.827z M238.575,34.834
	c-0.008-0.009-0.01-0.017-0.017-0.026c0.008,0.001,0.017,0.003,0.024,0.004C238.581,34.82,238.577,34.826,238.575,34.834z
	 M276.336,121.739c0.058-0.257,0.115-0.532,0.172-0.82C276.647,121.167,276.58,121.453,276.336,121.739z M282.334,161.932
	c-0.048,0.052-0.108,0.1-0.145,0.155c-0.059,0.104-0.099,0.212-0.126,0.325c-0.009,0.015-0.021,0.03-0.03,0.045
	c0.034-0.129,0.08-0.254,0.156-0.37c0.05-0.088,0.118-0.171,0.197-0.25C282.37,161.869,282.351,161.9,282.334,161.932z
	 M282.479,161.777c-0.022,0.017-0.031,0.038-0.052,0.055c0-0.011-0.001-0.021-0.002-0.032c0.011-0.01,0.021-0.021,0.032-0.031
	c0.014-0.001,0.026-0.002,0.039-0.004C282.49,161.769,282.484,161.773,282.479,161.777z M285.173,73.632
	c0.071-0.033,0.152-0.087,0.227-0.125c0.009,0.091,0.016,0.181,0.024,0.272C285.346,73.729,285.259,73.681,285.173,73.632z
	 M301.638,96.705c0.655,0.275,1.085,0.798,1.373,1.429C302.612,97.682,302.153,97.206,301.638,96.705z M307.4,112.165
	c0.063,0.021,0.128,0.039,0.188,0.063c0.008,0.029,0.02,0.056,0.027,0.084C307.544,112.264,307.471,112.217,307.4,112.165z"/>
</svg>
