<?xml version="1.0" encoding="utf-8"?>
<!-- Generator: Adobe Illustrator 16.0.3, SVG Export Plug-In . SVG Version: 6.00 Build 0)  -->
<!DOCTYPE svg PUBLIC "-//W3C//DTD SVG 1.1//EN" "http://www.w3.org/Graphics/SVG/1.1/DTD/svg11.dtd">
<svg version="1.1" id="Layer_1" xmlns="http://www.w3.org/2000/svg" xmlns:xlink="http://www.w3.org/1999/xlink" x="0px" y="0px"
	 width="22px" height="28px" viewBox="0 0 22 28" enable-background="new 0 0 22 28" xml:space="preserve">
<title>trash-o</title>
<path fill="#075D9D" d="M8,11.5v9C8,20.781,7.781,21,7.5,21h-1C6.219,21,6,20.781,6,20.5v-9C6,11.219,6.219,11,6.5,11h1
	C7.781,11,8,11.219,8,11.5z M12,11.5v9c0,0.281-0.219,0.5-0.5,0.5h-1c-0.281,0-0.5-0.219-0.5-0.5v-9c0-0.281,0.219-0.5,0.5-0.5h1
	C11.781,11,12,11.219,12,11.5z M16,11.5v9c0,0.281-0.219,0.5-0.5,0.5h-1c-0.281,0-0.5-0.219-0.5-0.5v-9c0-0.281,0.219-0.5,0.5-0.5h1
	C15.781,11,16,11.219,16,11.5z M18,22.813V8.001H4v14.812c0,0.75,0.422,1.188,0.5,1.188h13C17.578,24.001,18,23.563,18,22.813z
	 M7.5,6h7l-0.75-1.828C13.703,4.109,13.563,4.016,13.484,4H8.531C8.437,4.016,8.312,4.109,8.265,4.172L7.5,6z M22,6.5v1
	C22,7.781,21.781,8,21.5,8H20v14.813c0,1.719-1.125,3.187-2.5,3.187h-13c-1.375,0-2.5-1.406-2.5-3.125V7.999H0.5
	c-0.281,0-0.5-0.219-0.5-0.5v-1c0-0.281,0.219-0.5,0.5-0.5h4.828L6.422,3.39C6.735,2.624,7.672,1.999,8.5,1.999h5
	c0.828,0,1.766,0.625,2.078,1.391l1.094,2.609H21.5C21.781,5.999,22,6.218,22,6.5L22,6.5z"/>
</svg>
